<svg xmlns="http://www.w3.org/2000/svg" width="48" height="52" viewBox="0 0 477.37 477.33"><defs><style>.cls-1{fill:#8cc63f}.cls-2{fill:#39b54a}.cls-3{fill:#009245}.cls-4{fill:#006837}.cls-5{fill:#fff}.cls-6{fill:#1e4398}.cls-7{fill:#cb212c}.cls-8{fill:#f5d019}.cls-9{fill:#f4d01c}.cls-10{fill:#ebc81b}.cls-11{fill:#d7bc28}.cls-12{fill:#f4f3f1}.cls-13{fill:#f7f8fa}.cls-14{fill:#fbfbfc}.cls-15{fill:#f4f6f9}.cls-16{fill:#f4f4f4}.cls-17{fill:#edeff2}.cls-18{fill:#f3f1f2}</style></defs><title>Recurso 1</title><g id="Capa_2" data-name="Capa 2"><g id="A_COLOR" data-name="A COLOR"><path class="cls-1" d="M165.93 414.07a162.3 162.3 0 0 0 0-280.1v31.87H11.29A238.19 238.19 0 0 0 0 238.58a72.74 72.74 0 0 0 72.74 72.74h93.19z"/><path class="cls-2" d="M248.49 253.67A139.94 139.94 0 0 0 378.3 166H312V11.31A238.4 238.4 0 0 0 239.17 0a72.73 72.73 0 0 0-72.67 69.53V166h-47.81a139.92 139.92 0 0 0 129.8 87.67z"/><path class="cls-3" d="M471.19 293.28a239.22 239.22 0 0 0 6.18-47.28 139.47 139.47 0 0 0-7.31-39.44 72.74 72.74 0 0 0-65.31-40.69h-93.34V114.2a139.91 139.91 0 0 0 0 274.87v-77.75h152.74a140.51 140.51 0 0 0 7.04-18.04z"/><path class="cls-4" d="M229.42 223.66a139.93 139.93 0 0 0-129.81 87.66h66.32V466a238.42 238.42 0 0 0 72.82 11.32 72.74 72.74 0 0 0 72.66-69.54v-96.46h47.82a139.93 139.93 0 0 0-129.81-87.66z"/><path class="cls-5" d="M163.6 311.21c7.12-15.47 6-11.07 13.63-26.29 3.11-6.2 2.41-10.53-1.66-15.94-15.84-21.08-27.68-44.09-32-70.48-3.41-20.89-.69-40.73 9.19-59.63 12.4-23.75 42.51-34.71 66-23.59 6.85 3.25 12.93 7.71 13.05 16.07s-3.29 15.64-11 20c-9.22 5.2-19.89 2.51-23.46-7.34s-8.57-7-13.94-3.14c-11.2 8-14.38 20.34-15.41 32.9-2.59 31.77 11.14 58 29.79 82.19a12.1 12.1 0 0 0 10.08 4.8c34.22-1.73 66.29-8.85 88.81-37.9 6.55-8.45 10.87-17.87 8.25-29.05-1.18-5-3.08-8-9.39-5.33-7.55 3.26-14.51 1.1-19.26-5.71-5.42-7.79-4.27-15.86.64-23.46 4.43-6.87 10.75-9.19 18.9-7.46 25.91 5.53 41.8 38.45 31.47 66.3s-31.55 45-58.28 56a165.37 165.37 0 0 1-56.83 12.06c-6.46.26-10 2.57-12.42 8.54-7.94 19.62-23.12 29.21-34.43 73.57"/><path class="cls-6" d="M390.28 318.3a69.35 69.35 0 0 1 1.84 9.59 54.16 54.16 0 0 1-1.12 17.86c-.06.28-.1.57-.15.85-.12.49-.23 1-.35 1.49l-1.21 3.52h-88.18c-4.64 0-9.28 0-13.92.05l-.13-.08a15.35 15.35 0 0 0-.71-2.37l-.27-.9a56.33 56.33 0 0 1-1.84-18.64 63.63 63.63 0 0 1 1.76-10.31 4.41 4.41 0 0 0 .42-1.52l.83-2.19H388l1.38.05.6 1.53zM323 328.9l3.71.28.07-.19-2.51-2.11c-.32-.45.06-.79.18-1.17a9.23 9.23 0 0 0 .89-2.57l-1.73 1.16c-.56.09-.9.68-1.5.66l-2.67-2.4c.22 1.18.33 2.07.58 2.92.21.66 0 1-.57 1.26-.8.43-1.56.95-2.33 1.42l.06.27h1.9a1.91 1.91 0 0 0 1.08.15c1 .13.5 1.1.88 1.57a6.6 6.6 0 0 0 .53 2.18zm41.22 7.49l3.61.93-2.53-2.86v-.41a22.92 22.92 0 0 0 1.85-3c-1.38.26-2.41 1.16-3.72 1.21a16.3 16.3 0 0 0-2.25-2.6 22.81 22.81 0 0 0 .16 2.67c.12.76-.16 1.08-.85 1.33a10.46 10.46 0 0 0-2.64 1.2l2.95.68c1 .09.77.93.89 1.55a9.39 9.39 0 0 0 .21 2.44c.5-.78.87-1.42 1.3-2 .24-.45.32-1.1 1.01-1.14zm-7.69-9.94l-.07-.83a12.67 12.67 0 0 0 .64-3c-.84.73-1.54 1.28-2.16 1.9a.88.88 0 0 1-1.3.11 12.38 12.38 0 0 0-2.6-1.45c.44 1 .8 1.89 1.22 2.74a.83.83 0 0 1-.25 1.18 12.76 12.76 0 0 0-2.25 2.13l3.44-.41.37.05 1.52 3.56c.26-1.16.51-2.09.66-3 .09-.57.3-.78.88-.81.94 0 1.87-.17 3.11-.3zm-26-.39a4.88 4.88 0 0 0-.17 2 17.87 17.87 0 0 0 1.36-1.51c.71-1 1.54-1.36 2.65-.62a6.12 6.12 0 0 0 1.78.84 4 4 0 0 0-.85-1.77c-.79-1.06-.52-1.89.48-2.65a13.19 13.19 0 0 0 1.48-1.5 5.16 5.16 0 0 0-1.79.3 3.39 3.39 0 0 0-1.3.22.92.92 0 0 1-1.09-.6c-.41-.87-.91-1.7-1.48-2.75-.17 1.21-.34 2.19-.44 3.17a.78.78 0 0 1-.78.83c-.94.14-1.87.34-3.12.58 1.12.54 2 1 2.82 1.35.38.18.71.35.64.85a2.88 2.88 0 0 0-.18 1.26zm36.2 19a3.28 3.28 0 0 0-.36 1.3 3.64 3.64 0 0 0-.43 2h-.15v.09l.12-.12a5.4 5.4 0 0 0 1.81-1.31 1.48 1.48 0 0 1 2.36 0 16.47 16.47 0 0 0 1.75 1.21 9.68 9.68 0 0 0-.77-2.58 1 1 0 0 1 .38-1.44c.71-.47 1.35-1 2.13-1.64h-3.34l-.37-.05-1.42-3.76c-.34 1.22-.61 2.14-.85 3.08-.13.52-.35.78-.94.75h-2.73a6.54 6.54 0 0 0 1.26 1.19c.54.36 1.37.46 1.56 1.28zm-61.21.41c-.27.69-.54 1.37-.8 2.06-.06.17-.29.39 0 .53s.36-.15.51-.27a20 20 0 0 0 1.7-1.13c.59-.5 1-.39 1.56.06a9.75 9.75 0 0 0 2.19 1.58 10 10 0 0 0-.65-2.68 1 1 0 0 1 .51-1.4c.73-.42 1.4-.93 2.26-1.52a11.63 11.63 0 0 0-3-.14l-.63-.1-1-3.74a27.43 27.43 0 0 0-1 2.68 1.3 1.3 0 0 1-1.62 1.07c-.77-.08-1.55 0-2.54 0 .86.67 1.53 1.25 2.26 1.75a.87.87 0 0 1 .26 1.25zm39.76-24.85a9.39 9.39 0 0 0-.41-2.53c-.48.9-1 1.68-1.35 2.53a1 1 0 0 1-1.36.64c-.88-.19-1.77-.32-2.66-.48l-.16.27 2.57 2.42-1.7 3.35 3.46-1.47a26.68 26.68 0 0 0 2.63 2.53 23.41 23.41 0 0 0-.37-2.71c-.19-.76.07-1.09.75-1.36s1.56-.74 2.34-1.12v-.21l-2.71-.46c-1.03-.02-.83-.84-1.02-1.4zm-30.08 12.55v-1.07a11.46 11.46 0 0 0 .2-2.56c-.8.92-1.42 1.59-2 2.31a.78.78 0 0 1-1.08.27 16.17 16.17 0 0 0-3-1.11c.61 1 1.1 1.81 1.65 2.6a.87.87 0 0 1-.1 1.22 10.76 10.76 0 0 0-1.78 2.25l-.15.11h.1c.03 0 .11-.08 0-.15a2.66 2.66 0 0 0 1.52-.25l1.52-.4c.52-.1.77.22 1 .61.47.79 1 1.55 1.64 2.59.07-1.21.16-2.1.17-3a.94.94 0 0 1 .89-1.09c.94-.17 1.86-.46 3-.75z"/><path class="cls-7" d="M287.23 351.62c4.64 0 9.28-.05 13.92-.05h88.18c-.11.41-.22.82-.32 1.23a6.53 6.53 0 0 0-.8 2q-1.65 3.24-3.31 6.48l-1.91 3a64.68 64.68 0 0 1-7.85 9c-1.95 1.8-4.08 3.4-6.18 5l-3 1.91-6.49 3.3-1.92.72-4.55 1.55-1.72.46a57.81 57.81 0 0 1-14.84 1.46 54.71 54.71 0 0 1-12.44-1.82l-1-.25-1.1-.34a9.17 9.17 0 0 0-2.15-.7 1.69 1.69 0 0 0-.88-.37l-2.36-.95-.66-.33-2.13-1-.68-.33-1.94-1.08a1.75 1.75 0 0 0-.84-.49 7.43 7.43 0 0 0-1.66-1.06l-.95-.63a9.11 9.11 0 0 0-1.76-1.26l-.84-.66-1.74-1.41-.66-.6-1.47-1.31-.68-.65L299 371l-.65-.69a7.5 7.5 0 0 0-1.29-1.46l-.7-.83a10 10 0 0 0-1.46-1.84 1.21 1.21 0 0 0-.44-.62l-1.16-1.66-.59-.89c-.42-.68-.84-1.36-1.25-2l-.19-.34-1.17-2.13a3.09 3.09 0 0 0-.61-1.18 7.52 7.52 0 0 0-.85-1.87 1 1 0 0 0-.29-.63 10.49 10.49 0 0 0-.86-2.15z"/><path class="cls-8" d="M301.77 315.61h-3.44c.06-.52.51-.77.83-1.09l33.74-33.75c.32-.33.76-.57.85-1.08a17.55 17.55 0 0 1 3.24-.09c0 .54-.47.79-.79 1.11l-33.66 33.67c-.34.35-.83.62-.77 1.23zm4.32 0h-3.44c.06-.52.51-.77.83-1.09l33.73-33.75c.35-.34.84-.6.86-1.19h3.24c0 .54-.49.78-.81 1.1l-33.64 33.66c-.34.39-.86.66-.77 1.27zm4.32 0H307c.06-.52.51-.77.83-1.09l33.76-33.78c.32-.32.77-.56.83-1.09a13.49 13.49 0 0 1 3 .36c-.28.33-.55.67-.85 1l-33.39 33.4c-.34.32-.83.59-.77 1.2zm-12.96 0H294c.06-.52.51-.77.83-1.09l32.9-32.91c.34-.34.83-.61.83-1.2a17 17 0 0 1 3.88-.57c0 .53-.48.78-.8 1.1l-33.43 33.44c-.33.35-.82.62-.76 1.23zm17.28 0h-3.44c.07-.52.51-.77.83-1.09l33.34-33.35c.32-.32.76-.56.82-1.09l2.84.51a3.28 3.28 0 0 1-.9 1.06l-32.72 32.74c-.34.34-.83.61-.77 1.22zm-21.6 0h-3.44c.06-.52.51-.77.83-1.09l31.57-31.59c.34-.34.83-.6.86-1.18l.86-.4 3.45-.69c0 .59-.5.84-.84 1.19l-32.52 32.54c-.34.34-.83.61-.77 1.22zm25.92 0h-3.44c.07-.52.51-.77.83-1.09l32.67-32.68a2.87 2.87 0 0 0 .88-1.07l2.93.65a.28.28 0 0 0 0 .13c-.46 0-.68.38-.95.65l-32.25 32.25c-.3.34-.72.6-.67 1.16zm4.32 0h-3.44c.07-.52.51-.77.83-1.09l31.78-31.79a3.38 3.38 0 0 0 .9-1.05h.4l2.14.76c-.29.31-.57.63-.88.94l-31 31c-.3.35-.79.62-.73 1.23zm4.32 0h-3.44c.06-.53.51-.77.83-1.09q15.42-15.43 30.85-30.85c.3-.3.64-.56 1-.84h.18l2 .87c-.31.35-.6.72-.92 1q-14.83 14.85-29.66 29.68c-.41.35-.89.62-.84 1.23zm-38.88 0h-1.57c.31-.92.63-1.85.95-2.77l.61-1.08a.42.42 0 0 0 .22-.46c.48.05.7-.32 1-.59l25.45-25.45c.27-.27.64-.49.59-1a.4.4 0 0 0 .45-.22l1.08-.61c1.33-.34 2.54-1.06 3.9-1.3 0 .53-.48.78-.8 1.1l-31.06 31.07c-.39.43-.88.7-.82 1.31zm43.19 0h-3.44c.05-.49.46-.71.76-1L353 290.88c2.29-2.29 4.56-4.59 6.84-6.88h.2l2 1c-.28.32-.55.66-.86 1l-28.39 28.41c-.35.32-.79.59-.79 1.2zm4.33 0h-3.44c.07-.52.51-.77.83-1.09l28.11-28.12a3.15 3.15 0 0 0 .89-1.06l.4.09 1.74 1.07c-.28.32-.55.66-.85 1l-26.91 26.89c-.34.34-.83.61-.77 1.22zm4.32 0h-3.44c.06-.52.51-.76.83-1.09l26.58-26.59a3.38 3.38 0 0 0 .9-1.05h.21l1.9 1.15a.6.6 0 0 1 .06.19 6.51 6.51 0 0 0-.58.46l-25.92 25.91c-.28.3-.59.56-.54 1.02zm4.35 0h-3.44c.05-.49.46-.71.76-1q12.57-12.6 25.17-25.18c.28-.27.59-.51.89-.77h.18a8.33 8.33 0 0 0 1.66 1.15 1.05 1.05 0 0 1 .05.19 2.7 2.7 0 0 0-.34.25l-24.46 24.45a1.1 1.1 0 0 0-.47.91zm4.3 0h-3.45c0-.49.46-.72.76-1q11.59-11.61 23.21-23.22a3.53 3.53 0 0 0 .9-1.06h.2l1.73 1.34a1.05 1.05 0 0 0 .05.19 7.1 7.1 0 0 0-.67.53l-22.2 22.19c-.28.31-.59.57-.53 1.03z"/><path class="cls-9" d="M308.49 288.35a47.15 47.15 0 0 1 5.6-3.11c0 .45-.37.68-.64.95l-22.59 22.59c-.27.27-.5.64-1 .64a48.61 48.61 0 0 1 3.11-5.6l2.8-3.87a65.41 65.41 0 0 1 8.8-8.81z"/><path class="cls-8" d="M353.62 315.61h-3.45c.05-.49.46-.72.76-1l21.53-21.54c.25-.25.53-.47.8-.71a8.06 8.06 0 0 1 1.52 1.33c0 .5-.44.73-.73 1l-19.66 19.68c-.39.36-.83.63-.77 1.24zm4.32 0h-3.45c0-.41.35-.61.6-.86l19.6-19.6c.28-.27.5-.64 1-.64l1.49 1.31a1.36 1.36 0 0 1 0 .2 2.13 2.13 0 0 0-.34.25q-9.22 9.2-18.43 18.41a1.08 1.08 0 0 0-.47.93zm4.32 0h-3.45c.05-.49.46-.71.76-1q8.61-8.64 17.24-17.25c.27-.28.52-.59.78-.88h.2l1.31 1.52v.19c-.29.32-.55.66-.85 1L363 314.46c-.37.33-.81.59-.74 1.15zm4.32 0h-3.45c.05-.49.46-.71.76-1q6.17-6.19 12.36-12.37c1.15-1.14 2.31-2.26 3.47-3.39l1.34 1.5a1.34 1.34 0 0 0 0 .2c-.26.29-.5.61-.78.88l-13 13c-.28.36-.77.62-.7 1.18zm4.09.01h-3.22c.05-.49.46-.71.76-1q6.23-6.25 12.48-12.5c.3-.3.56-.65.84-1l.18.05A8.86 8.86 0 0 0 383 303v.22a3.32 3.32 0 0 0-.42.32l-11.43 11.43c-.21.15-.45.33-.48.65z"/><path class="cls-10" d="M338.07 279.59c0 .59-.51.85-.86 1.19l-33.73 33.75c-.32.32-.77.57-.83 1.09h-.88c-.06-.6.43-.88.77-1.22l33.66-33.67c.32-.32.77-.57.79-1.11zm4.32.07c-.06.53-.51.77-.83 1.09q-16.87 16.9-33.76 33.78c-.32.32-.77.57-.83 1.09h-.88c-.06-.6.43-.88.77-1.22l33.64-33.66c.32-.32.77-.56.81-1.1zm-44.94 35.95c-.06-.61.43-.88.77-1.22L331.65 281c.32-.32.77-.57.8-1.1a3.37 3.37 0 0 1 1.3-.15c-.09.51-.53.75-.85 1.08l-33.74 33.75c-.32.32-.77.57-.83 1.09zm48.83-35.52c-.06.53-.5.77-.82 1.09l-33.34 33.35c-.32.32-.76.57-.83 1.09h-.88c-.06-.6.43-.88.77-1.22l33.39-33.4c.3-.3.57-.64.85-1zm-53.15 35.52c-.06-.61.43-.88.77-1.22l32.52-32.53c.34-.35.84-.6.84-1.19a2.56 2.56 0 0 1 1.31-.25c0 .59-.49.86-.83 1.2l-32.9 32.91c-.32.32-.77.57-.83 1.09zM350 280.78a2.87 2.87 0 0 1-.88 1.07l-32.67 32.68c-.32.32-.76.57-.83 1.09h-.88c-.06-.6.43-.88.77-1.22l32.72-32.73a3.28 3.28 0 0 0 .9-1.06zm-61.19 34.83c-.06-.6.43-.88.77-1.22l31.06-31.07c.32-.32.77-.57.8-1.1l1.07-.47h.49c0 .58-.52.84-.86 1.18q-15.78 15.81-31.57 31.59c-.32.32-.77.57-.83 1.09z"/><path class="cls-8" d="M375.21 315.62h-3.43c0-.46.39-.67.66-.94q2.26-2.29 4.55-4.56l6.43-6.33c.41.59.83 1.18 1.25 1.76a.67.67 0 0 1 0 .2l-8.9 8.84a.9.9 0 0 0-.33.65.36.36 0 0 0-.23.38z"/><path class="cls-10" d="M356.9 282.84c-.33.28-.67.54-1 .84q-15.44 15.42-30.85 30.85c-.32.32-.77.56-.83 1.09h-.88c-.06-.61.43-.88.77-1.22l31-31c.31-.31.59-.63.88-.94h.23zm2.98 1.16c-2.28 2.29-4.55 4.59-6.84 6.88l-23.71 23.73c-.3.3-.71.52-.76 1h-.88c-.05-.6.43-.88.78-1.22q14.82-14.85 29.66-29.68c.32-.32.61-.69.92-1h.4zm2.84 1.35a3.15 3.15 0 0 1-.89 1.06l-28.11 28.12c-.32.32-.76.57-.83 1.09H332c-.05-.61.43-.88.78-1.22q14.22-14.23 28.4-28.4c.31-.3.58-.64.86-1h.22zm2.8 1.54a3.38 3.38 0 0 1-.9 1.05L338 314.53c-.32.33-.77.57-.83 1.09h-.88c-.06-.6.43-.88.77-1.22L364 287.48c.3-.31.57-.65.85-1l.4.09zm-75.62 22.53c.46 0 .69-.37 1-.64l22.59-22.59c.27-.27.64-.5.64-.95a.07.07 0 0 1 .1 0l.33-.18.65-.45a.45.45 0 0 0 .43-.2h.41c.05.47-.32.69-.59 1L290 310.75c-.27.27-.49.64-1 .59v-.41a.46.46 0 0 0 .21-.44l.44-.64.19-.33a.08.08 0 0 1 .06-.1z"/><path class="cls-8" d="M379.54 315.61h-3.45c0-.45.41-.66.68-.93 1.23-1.25 2.49-2.47 3.72-3.74 1.49-1.54 3.12-2.94 4.48-4.61l.19.06 1.08 1.94v.22l-6.36 6.28a.93.93 0 0 0-.34.78z"/><path class="cls-10" d="M373.26 292.36c-.27.24-.55.46-.8.71l-21.53 21.54c-.3.29-.71.52-.76 1h-.87c-.06-.46.25-.72.53-1L372 292.42a7.1 7.1 0 0 1 .67-.53l.52.28c.04.06.06.13.07.19zm2.39 2.16c-.46 0-.68.37-1 .64l-19.6 19.6c-.25.25-.58.45-.6.86h-.87c-.06-.6.42-.88.77-1.22l19.66-19.68c.29-.29.71-.52.73-1h.16l.69.65c.05.03.05.09.06.15zm4.07 4.33c-1.16 1.13-2.32 2.25-3.47 3.39q-6.19 6.18-12.36 12.37c-.3.3-.71.52-.76 1h-.87c-.07-.56.37-.82.69-1.15l15.32-15.32c.3-.31.56-.65.85-1l.58.48a1.36 1.36 0 0 1 .02.23z"/><path class="cls-8" d="M383.64 315.62h-3.23a.46.46 0 0 1 0-.21c1.88-2.06 3.87-4 5.89-5.91.07-.07.2-.05.31-.07l.92 1.72.12.44a18.48 18.48 0 0 0-4.01 4.03z"/><path class="cls-11" d="M383.42 303.8l-6.42 6.33q-2.28 2.26-4.55 4.56c-.27.27-.65.48-.66.94h-1.11c0-.32.27-.5.47-.7l11.43-11.43a3.32 3.32 0 0 1 .42-.32l.43.42z"/><path class="cls-8" d="M388 315.62h-3.22a16.54 16.54 0 0 1 3.22-3.41l.9 1.95.16.66a.94.94 0 0 0-1.06.8z"/><path class="cls-10" d="M386.66 309.43c-.11 0-.24 0-.31.07-2 1.91-4 3.85-5.89 5.91a.46.46 0 0 0 0 .21h-.87a.93.93 0 0 1 .31-.77l6.36-6.28.37.47z"/><path class="cls-11" d="M387.7 311.59l.23.22v.41a16.54 16.54 0 0 0-3.22 3.41h-1.1a18.48 18.48 0 0 1 4.09-4.04zm1.3 3.24l.22.21c0 .21.06.42.1.63l-1.38-.05a.94.94 0 0 1 1.06-.79z"/><path class="cls-12" d="M315.6 284.37a.45.45 0 0 1-.43.2.42.42 0 0 1 .43-.2zm-26.36 26.13a.46.46 0 0 1-.21.44.46.46 0 0 1 .21-.44z"/><path class="cls-9" d="M289.87 309.53l-.19.33zM314.52 285l-.33.18z"/><path class="cls-10" d="M353 281.56l.49.13a3.38 3.38 0 0 1-.9 1.05l-31.78 31.79c-.32.32-.76.57-.83 1.09h-.88c-.06-.56.37-.82.7-1.15l32.2-32.26c.27-.27.49-.64 1-.65zm14.69 6.68a1 1 0 0 1 .66.42c-.3.26-.61.5-.89.77q-12.6 12.58-25.17 25.18c-.3.3-.71.52-.76 1h-.88c0-.46.26-.72.54-1l25.92-25.91a6.51 6.51 0 0 1 .58-.46zm2.55 1.76l.48.34a3.53 3.53 0 0 1-.9 1.06q-11.61 11.6-23.21 23.21c-.3.29-.71.52-.76 1H345a1.1 1.1 0 0 1 .47-.92l24.46-24.45a2.7 2.7 0 0 1 .31-.24zm6.92 6l.43.45c-.26.29-.51.6-.78.88q-8.62 8.63-17.24 17.25c-.3.3-.71.52-.76 1h-.87a1.08 1.08 0 0 1 .45-.92q9.23-9.21 18.43-18.41a2.13 2.13 0 0 1 .34-.25z"/><path class="cls-13" d="M353.19 328.84l-3.44.41a12.76 12.76 0 0 1 2.25-2.13.83.83 0 0 0 .25-1.18c-.42-.85-.78-1.73-1.22-2.74a12.38 12.38 0 0 1 2.6 1.45.88.88 0 0 0 1.3-.11c.62-.62 1.32-1.17 2.16-1.9a12.67 12.67 0 0 1-.64 3 9.57 9.57 0 0 0-3.26 3.2zM366 348.32a3.64 3.64 0 0 1 .43-2 14.5 14.5 0 0 0 3.87-3.86h3.34c-.78.61-1.42 1.17-2.13 1.64a1 1 0 0 0-.38 1.44 9.68 9.68 0 0 1 .77 2.58 16.47 16.47 0 0 1-1.8-1.12 1.48 1.48 0 0 0-2.36 0 5.4 5.4 0 0 1-1.81 1.31z"/><path class="cls-10" d="M381.07 300.55a1 1 0 0 1 .46.59c-.28.32-.54.67-.84 1l-12.48 12.5c-.3.3-.71.52-.76 1h-.87c-.07-.56.37-.82.69-1.15l13-13c.3-.33.54-.65.8-.94z"/><path class="cls-13" d="M310.63 336.81a2.66 2.66 0 0 1-1.52.25 10.76 10.76 0 0 1 1.78-2.25.87.87 0 0 0 .1-1.22c-.55-.79-1-1.62-1.65-2.6a16.17 16.17 0 0 1 3 1.11.78.78 0 0 0 1.08-.27c.57-.72 1.19-1.39 2-2.31a11.46 11.46 0 0 1-.2 2.56 21 21 0 0 0-2.86 2.72 6.05 6.05 0 0 0-1.73 2.01zm20.1-12.05c.07-.5-.26-.67-.64-.85-.85-.39-1.7-.81-2.82-1.35 1.25-.24 2.18-.44 3.12-.58a.78.78 0 0 0 .78-.83c.1-1 .27-2 .44-3.17.57 1 1.07 1.88 1.48 2.75a.92.92 0 0 0 1.09.6 11.29 11.29 0 0 1-3.45 3.43z"/><path class="cls-14" d="M363.38 332.24c1.31-.05 2.34-.95 3.72-1.21a22.92 22.92 0 0 1-1.85 3c-.78.2-1.11.94-1.69 1.4s-1.05 1.35-1.92 1.62c-.12-.62.14-1.46-.89-1.55-.07-.51.29-.77.58-1.09a16.36 16.36 0 0 0 2.05-2.17z"/><path class="cls-13" d="M309.78 342.56a11.63 11.63 0 0 1 3 .14c-.86.59-1.53 1.1-2.26 1.52a1 1 0 0 0-.51 1.4 10 10 0 0 1 .65 2.68 9.75 9.75 0 0 1-2.19-1.58c-.56-.45-1-.56-1.56-.06a20 20 0 0 1-1.7 1.13c0-.54.4-.81.71-1.14a40.33 40.33 0 0 0 3.86-4.09z"/><path class="cls-15" d="M315.2 333.17l3.62 1.61c-1.11.29-2 .58-3 .75a.94.94 0 0 0-.89 1.09c0 .89-.1 1.78-.17 3-.66-1-1.17-1.8-1.64-2.59-.23-.39-.48-.71-1-.61a12.87 12.87 0 0 1 3.08-3.25z"/><path class="cls-14" d="M343.68 325.35l-3.46 1.47 1.7-3.35c.61-.32 1-.93 1.49-1.35s1-1.34 1.88-1.5c.19.56 0 1.39 1 1.4.07.5-.31.75-.58 1.06-.71.77-1.61 1.29-2.03 2.27z"/><path class="cls-13" d="M305.53 345.47a.87.87 0 0 0-.35-1.27c-.73-.5-1.4-1.08-2.26-1.75 1 0 1.77-.06 2.54 0a1.3 1.3 0 0 0 1.62-1.07 27.43 27.43 0 0 1 1-2.68l1 3.74a29.21 29.21 0 0 0-2.55 2.43c-.24.3-.53.69-1 .6z"/><path class="cls-14" d="M321 330.16c-.38-.47.11-1.44-.88-1.57-.08-.55.37-.8.65-1.15.9-1.07 2.21-1.78 2.8-3.13l1.73-1.16a9.23 9.23 0 0 1-.89 2.57c-.12.38-.5.72-.18 1.17-.05.91-1.27 1.08-1.27 2-.9 0-1.06 1.19-1.96 1.27z"/><path class="cls-15" d="M366.74 345.06c-.19-.82-1-.92-1.54-1.37a6.54 6.54 0 0 1-1.26-1.19h2.73c.59 0 .81-.23.94-.75.24-.94.51-1.86.85-3.08l1.42 3.76c-.49 0-.73.4-1 .68a13.75 13.75 0 0 1-2.14 1.95z"/><path class="cls-13" d="M334.38 325.89c-1.11-.74-1.94-.41-2.65.62a17.87 17.87 0 0 1-1.36 1.51 4.88 4.88 0 0 1 .17-2c1.59-1 2.64-2.48 4-3.71.39-.35.89-.63 1-1.24a5.16 5.16 0 0 1 1.79-.3 13.19 13.19 0 0 1-1.48 1.5c-1 .76-1.27 1.59-.48 2.65a2 2 0 0 0-.99.97z"/><path class="cls-15" d="M356.52 326.45l3.21 1.85c-1.24.13-2.17.26-3.11.3-.58 0-.79.24-.88.81-.15.95-.4 1.88-.66 3l-1.52-3.56c.48 0 .72-.4 1-.67a12.44 12.44 0 0 1 1.96-1.73z"/><path class="cls-16" d="M343.68 325.35c.42-1 1.35-1.5 2-2.27.27-.31.65-.56.58-1.06l2.71.46v.21c-.78.38-1.54.81-2.34 1.12s-.94.6-.75 1.36a23.41 23.41 0 0 1 .37 2.71 26.68 26.68 0 0 1-2.57-2.53z"/><path class="cls-10" d="M384.67 305.76l.3.58c-1.36 1.67-3 3.07-4.48 4.61-1.23 1.27-2.49 2.49-3.72 3.74-.27.27-.64.48-.68.93h-.65v-.37a.9.9 0 0 1 .33-.65z"/><path class="cls-16" d="M363.38 332.24a16.36 16.36 0 0 1-2.05 2.19c-.29.32-.65.58-.58 1.09l-2.95-.68a10.46 10.46 0 0 1 2.64-1.2c.69-.25 1-.57.85-1.33a22.81 22.81 0 0 1-.16-2.67 16.3 16.3 0 0 1 2.25 2.6z"/><path class="cls-17" d="M345.29 320.62c-.89.16-1.25 1-1.88 1.5s-.88 1-1.49 1.35l-2.57-2.42.16-.27c.89.16 1.78.29 2.66.48a1 1 0 0 0 1.36-.64c.36-.85.87-1.63 1.35-2.53a9.39 9.39 0 0 1 .41 2.53z"/><path class="cls-15" d="M319.06 328.44h-1.9l-.06-.27c.77-.47 1.53-1 2.33-1.42.56-.29.78-.6.57-1.26-.25-.85-.36-1.74-.58-2.92l2.67 2.4c-.46.49-.93 1-1.36 1.48-.55.67-1.43 1.06-1.67 1.99z"/><path class="cls-17" d="M361.64 337.07c.87-.27 1.26-1.1 1.92-1.62s.91-1.2 1.69-1.4v.41c0 .83-1.21 1-1.08 1.93-.69 0-.77.69-1.06 1.1-.43.6-.8 1.24-1.3 2a9.39 9.39 0 0 1-.17-2.42zm-56.11 8.4c.51.09.76-.3 1.07-.58a29.21 29.21 0 0 1 2.55-2.43l.63.1a40.33 40.33 0 0 1-3.86 4.09c-.31.33-.73.6-.71 1.14-.15.12-.3.38-.51.27s0-.36 0-.53c.3-.69.56-1.37.83-2.06z"/><path class="cls-18" d="M335.48 321.11c-.08.61-.58.89-1 1.24-1.33 1.23-2.38 2.75-4 3.71a2.88 2.88 0 0 1 .19-1.3 11.29 11.29 0 0 0 3.45-3.43 3.39 3.39 0 0 1 1.36-.22z"/><path class="cls-17" d="M315.2 333.17a12.87 12.87 0 0 0-3.05 3.24l-1.52.4a6.05 6.05 0 0 1 1.74-2 21 21 0 0 1 2.86-2.72zm7.8-4.26c0-.94 1.22-1.11 1.27-2l2.51 2.11-.07.19z"/><path class="cls-15" d="M364.21 336.39c-.13-.92 1.05-1.1 1.08-1.93l2.53 2.86z"/><path class="cls-17" d="M319.06 328.44c.24-.93 1.12-1.32 1.67-2 .43-.52.9-1 1.36-1.48.6 0 .94-.57 1.5-.66-.59 1.35-1.9 2.06-2.8 3.13-.28.35-.73.6-.65 1.15a1.91 1.91 0 0 1-1.08-.14z"/><path class="cls-18" d="M366.74 345.06a13.75 13.75 0 0 0 2.1-1.93c.31-.28.55-.67 1-.68l.37.05a14.5 14.5 0 0 1-3.87 3.86 3.28 3.28 0 0 1 .4-1.3zm-10.22-18.61a12.44 12.44 0 0 0-1.93 1.77c-.31.27-.55.66-1 .67l-.37-.05a9.57 9.57 0 0 1 3.26-3.22z"/><path class="cls-17" d="M321 330.16c.88-.08 1-1.27 2-1.26-.47 1.11-.93 2.22-1.44 3.44a6.6 6.6 0 0 1-.56-2.18zm13.38-4.27a2 2 0 0 1 .93-.93 4 4 0 0 1 .85 1.77 6.12 6.12 0 0 1-1.78-.84z"/><path class="cls-11" d="M375.44 315.25v.37h-.23a.36.36 0 0 1 .23-.37z"/><path class="cls-13" d="M365.93 348.3l-.12.12v-.09h.19zm-56.82-11.24q.12.1 0 .15h-.1l.15-.11z"/><path class="cls-10" d="M316 284.35a.48.48 0 0 1 .45-.22.4.4 0 0 1-.45.22zm-27.2 27.45a.5.5 0 0 1 .22-.46.42.42 0 0 1-.22.46z"/></g></g></svg>